<svg width="114" height="21" viewBox="0 0 114 21" fill="none" xmlns="http://www.w3.org/2000/svg">
<path d="M10.1394 21C15.7393 21 20.2788 16.299 20.2788 10.5C20.2788 4.70101 15.7393 0 10.1394 0C4.53957 0 0 4.70101 0 10.5C0 16.299 4.53957 21 10.1394 21Z" fill="#272EAE"/>
<path d="M9.15049 16.4593V11.3822H7.39893V9.36467H9.15049V7.77503C9.15049 6.04794 10.2375 5.10791 11.8246 5.10791C12.5851 5.10791 13.2382 5.16334 13.4278 5.18772V6.99241H12.3271C11.4638 6.99241 11.2971 7.39148 11.2971 7.97457V9.36467H13.2451L12.9779 11.3822H11.2971V16.4593" fill="white"/>
<mask id="mask0" mask-type="alpha" maskUnits="userSpaceOnUse" x="7" y="5" width="7" height="12">
<path d="M9.15049 16.4593V11.3822H7.39893V9.36467H9.15049V7.77503C9.15049 6.04794 10.2375 5.10791 11.8246 5.10791C12.5851 5.10791 13.2382 5.16334 13.4278 5.18772V6.99241H12.3271C11.4638 6.99241 11.2971 7.39148 11.2971 7.97457V9.36467H13.2451L12.9779 11.3822H11.2971V16.4593" fill="white"/>
</mask>
<g mask="url(#mask0)">
</g>
<path d="M41.3797 21C46.9795 21 51.5191 16.299 51.5191 10.5C51.5191 4.70101 46.9795 0 41.3797 0C35.7798 0 31.2402 4.70101 31.2402 10.5C31.2402 16.299 35.7798 21 41.3797 21Z" fill="#1590D8"/>
<path d="M46.0081 8.47195C46.0151 8.57278 46.0151 8.67363 46.0151 8.77446C46.0151 11.85 43.7546 15.3937 39.6232 15.3937C38.3503 15.3937 37.168 15.0119 36.1733 14.3493C36.3542 14.3709 36.528 14.3781 36.7159 14.3781C37.7661 14.3781 38.7329 14.0108 39.5049 13.3842C38.5173 13.3625 37.6896 12.6927 37.4044 11.7708C37.5435 11.7923 37.6826 11.8068 37.8287 11.8068C38.0304 11.8068 38.2321 11.7779 38.4199 11.7275C37.3905 11.5114 36.6185 10.5751 36.6185 9.4443V9.4155C36.9175 9.58837 37.2653 9.69641 37.6339 9.7108C37.0288 9.29303 36.6324 8.57998 36.6324 7.77328C36.6324 7.34113 36.7436 6.94499 36.9384 6.59926C38.0443 8.01097 39.7066 8.93289 41.5706 9.03375C41.5358 8.86088 41.515 8.68084 41.515 8.50077C41.515 7.21869 42.5165 6.17432 43.7615 6.17432C44.4084 6.17432 44.9926 6.45522 45.403 6.90898C45.9107 6.80815 46.3976 6.61367 46.8288 6.34718C46.6619 6.88739 46.3072 7.34116 45.8412 7.62924C46.2933 7.57885 46.7314 7.44917 47.1348 7.26912C46.8289 7.73007 46.4463 8.14061 46.0081 8.47195Z" fill="white"/>
<mask id="mask1" mask-type="alpha" maskUnits="userSpaceOnUse" x="36" y="6" width="12" height="10">
<path d="M46.0081 8.47195C46.0151 8.57278 46.0151 8.67363 46.0151 8.77446C46.0151 11.85 43.7546 15.3937 39.6232 15.3937C38.3503 15.3937 37.168 15.0119 36.1733 14.3493C36.3542 14.3709 36.528 14.3781 36.7159 14.3781C37.7661 14.3781 38.7329 14.0108 39.5049 13.3842C38.5173 13.3625 37.6896 12.6927 37.4044 11.7708C37.5435 11.7923 37.6826 11.8068 37.8287 11.8068C38.0304 11.8068 38.2321 11.7779 38.4199 11.7275C37.3905 11.5114 36.6185 10.5751 36.6185 9.4443V9.4155C36.9175 9.58837 37.2653 9.69641 37.6339 9.7108C37.0288 9.29303 36.6324 8.57998 36.6324 7.77328C36.6324 7.34113 36.7436 6.94499 36.9384 6.59926C38.0443 8.01097 39.7066 8.93289 41.5706 9.03375C41.5358 8.86088 41.515 8.68084 41.515 8.50077C41.515 7.21869 42.5165 6.17432 43.7615 6.17432C44.4084 6.17432 44.9926 6.45522 45.403 6.90898C45.9107 6.80815 46.3976 6.61367 46.8288 6.34718C46.6619 6.88739 46.3072 7.34116 45.8412 7.62924C46.2933 7.57885 46.7314 7.44917 47.1348 7.26912C46.8289 7.73007 46.4463 8.14061 46.0081 8.47195Z" fill="white"/>
</mask>
<g mask="url(#mask1)">
</g>
<path d="M72.6199 21C78.2197 21 82.7593 16.299 82.7593 10.5C82.7593 4.70101 78.2197 0 72.6199 0C67.02 0 62.4805 4.70101 62.4805 10.5C62.4805 16.299 67.02 21 72.6199 21Z" fill="#D0021B"/>
<path fill-rule="evenodd" clip-rule="evenodd" d="M76.4066 7.18182C76.8537 7.30795 77.2059 7.6796 77.3254 8.15151C77.5426 9.00685 77.5426 10.7915 77.5426 10.7915C77.5426 10.7915 77.5426 12.5761 77.3254 13.4314C77.2059 13.9033 76.8537 14.2595 76.4066 14.3856C75.596 14.6148 72.346 14.6148 72.346 14.6148C72.346 14.6148 69.096 14.6148 68.2855 14.3856C67.8383 14.2595 67.4861 13.9033 67.3666 13.4314C67.1494 12.5761 67.1494 10.7915 67.1494 10.7915C67.1494 10.7915 67.1494 9.00685 67.3666 8.15151C67.4861 7.6796 67.8383 7.30797 68.2855 7.18182C69.096 6.95264 72.346 6.95264 72.346 6.95264C72.346 6.95264 75.5961 6.95264 76.4066 7.18182ZM71.2828 9.17105V12.4116L73.9992 10.7914L71.2828 9.17105Z" fill="white"/>
<mask id="mask2" mask-type="alpha" maskUnits="userSpaceOnUse" x="67" y="6" width="11" height="9">
<path fill-rule="evenodd" clip-rule="evenodd" d="M76.4066 7.18182C76.8537 7.30795 77.2059 7.6796 77.3254 8.15151C77.5426 9.00685 77.5426 10.7915 77.5426 10.7915C77.5426 10.7915 77.5426 12.5761 77.3254 13.4314C77.2059 13.9033 76.8537 14.2595 76.4066 14.3856C75.596 14.6148 72.346 14.6148 72.346 14.6148C72.346 14.6148 69.096 14.6148 68.2855 14.3856C67.8383 14.2595 67.4861 13.9033 67.3666 13.4314C67.1494 12.5761 67.1494 10.7915 67.1494 10.7915C67.1494 10.7915 67.1494 9.00685 67.3666 8.15151C67.4861 7.6796 67.8383 7.30797 68.2855 7.18182C69.096 6.95264 72.346 6.95264 72.346 6.95264C72.346 6.95264 75.5961 6.95264 76.4066 7.18182ZM71.2828 9.17105V12.4116L73.9992 10.7914L71.2828 9.17105Z" fill="white"/>
</mask>
<g mask="url(#mask2)">
</g>
<path d="M103.861 21C109.46 21 114 16.299 114 10.5C114 4.70101 109.46 0 103.861 0C98.2608 0 93.7212 4.70101 93.7212 10.5C93.7212 16.299 98.2608 21 103.861 21Z" fill="#F53E6A"/>
<path fill-rule="evenodd" clip-rule="evenodd" d="M104.135 4.71777C101.207 4.71777 98.8252 7.1843 98.8252 10.2161C98.8252 13.2479 101.207 15.7144 104.135 15.7144C107.062 15.7144 109.444 13.2479 109.444 10.2161C109.444 7.1843 107.062 4.71777 104.135 4.71777ZM107.645 7.2533C108.277 8.05246 108.659 9.07033 108.669 10.1788C108.52 10.1461 107.02 9.83114 105.511 10.0277C105.388 9.71636 105.272 9.44251 105.113 9.10505C106.79 8.3961 107.55 7.38723 107.645 7.2533ZM104.764 8.40674C106.377 7.7808 107.06 6.83059 107.141 6.71027C106.026 5.68557 104.51 5.2984 103.072 5.65741C103.197 5.83123 104.021 6.99279 104.764 8.40674ZM102.207 5.97295C102.326 6.14276 103.137 7.30576 103.888 8.68905C101.767 9.27243 99.8981 9.26402 99.6953 9.26125C99.9894 7.80391 100.938 6.59269 102.207 5.97295ZM99.6019 10.0797C99.6005 10.1274 99.5996 10.1752 99.5996 10.2232C99.5996 11.4294 100.041 12.5307 100.765 13.3633C101.501 12.0602 102.991 10.6866 104.631 10.2083C104.517 9.94152 104.393 9.67443 104.263 9.41131C101.998 10.1132 99.8003 10.0839 99.6019 10.0797ZM101.351 13.9283C101.825 12.9255 103.11 11.631 104.939 10.9851C105.575 12.6985 105.839 14.1345 105.906 14.5465C104.448 15.1897 102.694 15.0133 101.351 13.9283ZM105.788 10.768C106.381 12.456 106.622 13.8308 106.669 14.1165C107.686 13.4041 108.41 12.2755 108.613 10.9688C108.457 10.9181 107.209 10.5324 105.788 10.768Z" fill="white"/>
<mask id="mask3" mask-type="alpha" maskUnits="userSpaceOnUse" x="98" y="4" width="12" height="12">
<path fill-rule="evenodd" clip-rule="evenodd" d="M104.135 4.71777C101.207 4.71777 98.8252 7.1843 98.8252 10.2161C98.8252 13.2479 101.207 15.7144 104.135 15.7144C107.062 15.7144 109.444 13.2479 109.444 10.2161C109.444 7.1843 107.062 4.71777 104.135 4.71777ZM107.645 7.2533C108.277 8.05246 108.659 9.07033 108.669 10.1788C108.52 10.1461 107.02 9.83114 105.511 10.0277C105.388 9.71636 105.272 9.44251 105.113 9.10505C106.79 8.3961 107.55 7.38723 107.645 7.2533ZM104.764 8.40674C106.377 7.7808 107.06 6.83059 107.141 6.71027C106.026 5.68557 104.51 5.2984 103.072 5.65741C103.197 5.83123 104.021 6.99279 104.764 8.40674ZM102.207 5.97295C102.326 6.14276 103.137 7.30576 103.888 8.68905C101.767 9.27243 99.8981 9.26402 99.6953 9.26125C99.9894 7.80391 100.938 6.59269 102.207 5.97295ZM99.6019 10.0797C99.6005 10.1274 99.5996 10.1752 99.5996 10.2232C99.5996 11.4294 100.041 12.5307 100.765 13.3633C101.501 12.0602 102.991 10.6866 104.631 10.2083C104.517 9.94152 104.393 9.67443 104.263 9.41131C101.998 10.1132 99.8003 10.0839 99.6019 10.0797ZM101.351 13.9283C101.825 12.9255 103.11 11.631 104.939 10.9851C105.575 12.6985 105.839 14.1345 105.906 14.5465C104.448 15.1897 102.694 15.0133 101.351 13.9283ZM105.788 10.768C106.381 12.456 106.622 13.8308 106.669 14.1165C107.686 13.4041 108.41 12.2755 108.613 10.9688C108.457 10.9181 107.209 10.5324 105.788 10.768Z" fill="white"/>
</mask>
<g mask="url(#mask3)">
</g>
</svg>
